<svg width="100%" height="100%" viewBox="0 0 1529 966" fill="none" xmlns="http://www.w3.org/2000/svg">
    <path d="M2.51077 2.5V36.8503H36.8611L36.8611 2.5H2.51077Z" fill="#D9D9D9" />
    <path d="M2.51074 929.15V963.5H36.8611V929.15H2.51074Z" fill="#D9D9D9" />
    <path d="M1492.14 929.15V963.5H1526.49V929.15H1492.14Z" fill="#D9D9D9" />
    <path d="M1492.14 2.5V36.8503H1526.49V2.5H1492.14Z" fill="#D9D9D9" />
    <path
        d="M1492.14 36.8503H36.8611M1492.14 36.8503V929.15M1492.14 36.8503V2.5H1526.49V36.8503H1492.14ZM36.8611 36.8503V929.15M36.8611 36.8503L36.8611 2.5H2.51077V36.8503H36.8611ZM36.8611 929.15H1492.14M36.8611 929.15V963.5H2.51074V929.15H36.8611ZM1492.14 929.15V963.5H1526.49V929.15H1492.14Z"
        stroke="black" stroke-width="5" />
</svg>